<svg xmlns="http://www.w3.org/2000/svg" viewBox="0 0 234.26 269.11"><title>shichimaru-inquiry</title><path d="M116.87,269.11h-11c-12-.34-23-.91-33.36-2.88a58.39,58.39,0,0,1-14-4.14c-3.49-1.65-8.78-5.09-6.72-10.62,1.5-4,6.26-6.11,10.5-7.62a76.33,76.33,0,0,1,14.82-3.36,257.2,257.2,0,0,1,34.32-2,235.31,235.31,0,0,1,34.14,2.1,81.69,81.69,0,0,1,14.76,3.36c4.28,1.47,9,3.51,10.68,7.5a6.54,6.54,0,0,1-1.32,6.78,17.63,17.63,0,0,1-5.34,3.72c-4.2,2.07-9,3.14-14,4.14C140,268.17,128.75,268.78,116.87,269.11Z" style="fill:#727171"/><path d="M130.09,0h1c6.47.44,9.49,4.33,9.87,10.86,5.18.25,8.5,2.47,9.57,6.81a11.17,11.17,0,0,1-.6,6.93,14.76,14.76,0,0,1-3.48,4.68c7.26,6.84,14.61,13.68,21.87,20.58,2.4,2.28,4.85,4.56,7.26,6.87q4.8,4.62,9.72,9.12c3.25,3,6.42,6.13,9.69,9.18s6.49,6.1,9.72,9.12c2.37,2.21,4.79,4.59,7.26,6.87.68.63,2,1.48,1.53,3-.3,1-1.66,1.76-2.37,2.34-.9.74-1.71,1.43-2.58,2.13a30.48,30.48,0,0,1-2.61,2.1,2,2,0,0,1-1.86.15c-.51-.23-.84-.72-1.29-1-2.86,2.15-5.71,4.31-8.61,6.42.06.22.32.38.51.57a14.23,14.23,0,0,1,2.82,5c1.65,4.28,2.61,9.12,4.08,13.68a19,19,0,0,0,2.79,6.09c4,4.91,9.1,8.61,12.48,14.19a16.56,16.56,0,0,1,2.4,6.48A12.31,12.31,0,0,1,214,164.5a13,13,0,0,1-6.51,2.37,16.17,16.17,0,0,1-7.56-1.14c-8.32-3.43-11.52-12.24-13.32-22.2-.37,5.14-1,9.75-2.58,13.5-3.14,7.33-9.75,12-19.5,12.66a43.33,43.33,0,0,1-7.53-.33l-7.29-.75c-.06.12.2.18.33.27,4.22,2.83,8.39,5.88,12.45,8.94,3.6,2.72,7.26,5.61,10.62,8.7.19.18.44.38.72.66s.57.68.87.63a12.58,12.58,0,0,1,8.07,1.35A12.26,12.26,0,0,1,187.7,194a12.82,12.82,0,0,1,1.47,8,12.16,12.16,0,0,1-3.15,6.54,12,12,0,0,1-6.06,3.66,13.82,13.82,0,0,1-8.25-.6,12,12,0,0,1-7.26-7.32,10.25,10.25,0,0,1-.57-3.06,6.49,6.49,0,0,0,0-1.2.43.43,0,0,0-.13-.23c-1.16-1.06-2.45-2-3.72-3.06-3.73-3-7.67-5.92-11.52-8.76h-.06c1.44,10.5,2.76,20.87,4.23,31.35.15,1.07.11,1.82-.57,2.4a5.1,5.1,0,0,1-2.58.66c-2.48.27-4.86.42-7.47.6a9.51,9.51,0,0,0-1.5.09,2.25,2.25,0,0,0-.72.54c-.23.2-.48.4-.69.57-.46.38-1,.69-1.41,1.08-.1.1-.08.09-.09.18a6.91,6.91,0,0,0,.18,1.68c.71,4.91,2.85,8.06,6.6,9.87a21.36,21.36,0,0,0,2.61,1c3.53,1.36,6.35,3.38,7.71,6.93a9.68,9.68,0,0,1,0,6.24,8,8,0,0,1-3.3,4,17.11,17.11,0,0,1-5.4,1.92,34.66,34.66,0,0,1-6.45.9c-7.18.29-14.54-.24-19-2.82a8.3,8.3,0,0,1-3.6-3.72,20.84,20.84,0,0,1-1.32-6c-.57-4.28-.81-8.89-1.26-13.38H111.3c-.6,3.4-.66,7.08-1.08,10.53a45.79,45.79,0,0,1-.87,5,20,20,0,0,1-1.44,4.35c-2.63,5.19-9.47,5.89-17.07,6.12H88.39a52.63,52.63,0,0,1-8-.72,18,18,0,0,1-6.69-2,8,8,0,0,1-3.87-4.89,9.76,9.76,0,0,1,1.11-7.08A11.11,11.11,0,0,1,75.38,239c1.87-1,4-1.65,6.15-2.58a8,8,0,0,0,4.26-4.47A18.91,18.91,0,0,0,87,224.17a24.66,24.66,0,0,1-4.71-5,.71.71,0,0,0-.51-.33c-1.59-.34-3.36-.67-4.86-1s-2.87-.42-3.15-1.89a3.35,3.35,0,0,1,.18-1.44c2.63-10.78,5.33-21.34,8.07-32.19a17.57,17.57,0,0,0-2.22-.81c-3.39-1.18-6.86-2.51-10.11-3.9-1.33-.57-2.59-1.26-3.87-1.74a.09.09,0,0,0-.15,0,5.34,5.34,0,0,1-4,3.09c-2.26.48-4.18-.35-5.91-.9-5.36-1.69-10.93-3.36-16.29-5-3.53-1.08-5.78-3.79-7.2-7a15,15,0,0,1-.9-2.64q-.35-1.5-.57-3.18c0-.36-.71-.5-1-.66a13.36,13.36,0,0,1-4.71-3.75A15.24,15.24,0,0,1,22,149.26c-1.33-6.25,1.07-11.38,4.44-14.16q-.26-1.56-.54-3.09a1.21,1.21,0,0,0-.48.21,19.69,19.69,0,0,1-8.55,3.3,16.18,16.18,0,0,1-10.26-2.13,13.73,13.73,0,0,1-5.82-6.81A13.53,13.53,0,0,1,0,121,11.18,11.18,0,0,1,1.5,116.2c2.93-5.54,8.76-7.88,15.42-9.84,2.15-.63,4.13-1.15,6.15-1.77a1.72,1.72,0,0,0,.9-.66c1.42-1.55,3.15-3.4,4.56-4.92a4.22,4.22,0,0,1,2-1.14,4.88,4.88,0,0,1,2.1-.15c.27,0,.65.15.84,0a6.17,6.17,0,0,0,.75-.78c1.76-1.76,3.59-3.59,5.37-5.28a18.68,18.68,0,0,1,7.32-4.83c0-.21-.19-.35-.3-.51-1.59-2.31-3.23-4.62-4.86-7a3.26,3.26,0,0,0-.33-.51c-.11-.08-.07-.09-.3,0a2.26,2.26,0,0,1-1.74.24,2.07,2.07,0,0,1-1.17-1l-4-6.72a2.17,2.17,0,0,1-.33-1.68c.26-1.08,1.39-1.49,2.31-2,24.61-13.87,49.61-28,74.18-41.87a11,11,0,0,1-2.4-5.28,9.17,9.17,0,0,1,1.5-6.09,10.72,10.72,0,0,1,10.62-5h.06C121.75,4.59,124.21.59,130.09,0Z"/><path d="M134,4.78A7,7,0,0,0,130.27,4c-2.57.16-4,1.81-5.1,3.63a18.18,18.18,0,0,0-2,6.6,12.88,12.88,0,0,0-5.25-.81,6.48,6.48,0,0,0-4.23,2,6.18,6.18,0,0,0-1.83,4.35,6.44,6.44,0,0,0,2.1,4.08c4.48-2.57,9.22-5.21,13.77-7.8a11.8,11.8,0,0,1,2-1.08c1.52-.47,2.32.79,3.09,1.5,1.58,1.45,3.13,2.94,4.62,4.35s3.12,2.88,4.59,4.35a14.74,14.74,0,0,0,1.56,1.38A9.48,9.48,0,0,0,146.35,23a6.86,6.86,0,0,0,0-5.22,4.9,4.9,0,0,0-3.63-2.67,14.84,14.84,0,0,0-5.7.21C137.19,10.48,137,6.38,134,4.78Z" style="fill:#727171"/><path d="M38.41,70.95c.75,1.18,1.46,2.4,2.19,3.6q43.28-24.14,86.52-48.33c.41-.23.92-.54,1.41-.78,1.42-.7,2.28.29,3,1,1.2,1.1,2.38,2.35,3.48,3.36,1.6,1.47,3.21,2.94,4.68,4.41,3.06,3.06,6.27,5.92,9.3,8.88s6.22,5.89,9.33,8.85,6.2,6,9.33,8.88,6.17,6,9.33,8.85c1.58,1.45,3.11,3,4.65,4.44,7.74,7.45,15.56,14.78,23.34,22.17,1.18-1,2.36-2,3.57-2.91a8.66,8.66,0,0,0-1.14-1.17L206.17,91c-2.49-2.3-4.91-4.63-7.38-6.93-8.24-7.66-16.38-15.48-24.57-23.16-14.79-13.87-29.47-27.88-44.28-41.7Q84.2,45.12,38.41,70.95Z" style="fill:#727171"/><path d="M44.75,76.83c2.1,3,4.15,6,6.24,8.94C75.54,72,100.15,58.12,124.76,44.4a3,3,0,0,1,1.35-.54c1.15,0,1.77.86,2.37,1.41,5.25,4.83,10.32,9.82,15.51,14.67s10.4,9.73,15.54,14.67c2.56,2.46,5.15,4.91,7.77,7.32,3.93,3.61,7.78,7.36,11.64,11s7.78,7.34,11.7,11c2.83-2.14,5.85-4.37,8.73-6.54.17-.13.57-.37.57-.45s-.37-.36-.54-.51c-.58-.54-1.14-1.12-1.65-1.59-2.28-2.09-4.52-4.2-6.66-6.3-1.46-1.43-2.93-2.82-4.41-4.2-3-2.79-5.87-5.62-8.85-8.4-1.49-1.39-3-2.8-4.41-4.23s-3-2.78-4.41-4.2-3-2.81-4.44-4.2C152.64,52.12,141,40.72,129.17,29.68Q86.93,53.24,44.75,76.83Z" style="fill:#fff"/><path d="M124.6,49c-5.7,3.24-11.46,6.44-17.1,9.6-17.89,10-35.68,20.09-53.61,30.09a7,7,0,0,0-1.17.63.61.61,0,0,0-.12.33c-.19,1.3-.26,2.64-.39,4-.41,4-.75,8-1.17,11.91-.84,7.88-1.58,15.87-2.4,23.73a46.68,46.68,0,0,0-.36,8.25,19.88,19.88,0,0,0,5,12.42c2.78,3,6.59,5,11.43,6a71.8,71.8,0,0,0,7.74,1c2.64.23,5.32.5,8,.78,20.57,2.18,40.93,4,61.41,6.15.31,0,.64.12,1,.12a7.46,7.46,0,0,1,1,0,8.48,8.48,0,0,1,.87.21c4.9.57,10,1,14.88,1.47a26.83,26.83,0,0,0,8-.3c7.26-1.44,11.85-5.65,13.77-12.39a43.69,43.69,0,0,0,1.17-7.53c1.18-11.89,2.4-23.81,3.57-35.67.13-1.31.37-2.65.39-4a.37.37,0,0,0,0-.24,6.32,6.32,0,0,0-1-.87c-.34-.31-.65-.64-.93-.9-1.94-1.79-3.91-3.61-5.67-5.37-2.49-2.49-5.2-4.75-7.59-7.14s-5.09-4.72-7.56-7.14-5-4.8-7.56-7.17C146,67.38,136,58,125.85,48.4A10.38,10.38,0,0,0,124.6,49Z" style="fill:#fff"/><path d="M46.36,91.32a22.59,22.59,0,0,0-4,3.09c-1.54,1.42-3,2.94-4.44,4.38-.07.07-.23.13-.21.27,3.21.89,6.43,1.77,9.69,2.61.33-3.69.74-7.32,1.08-11A4.11,4.11,0,0,0,46.36,91.32Z" style="fill:#fff"/><path d="M33.75,102.09a9.94,9.94,0,0,0-2-.45c-.74,0-1.09,1.21-1.14,2a15,15,0,0,0,.48,3.84c1.57,8.46,3,17.59,4.56,25.8A12.79,12.79,0,0,1,39.4,135c.15.11.29.31.42.27-1.22-7-2.52-14.39-3.78-21.42a7.82,7.82,0,0,1-.21-1.47,2,2,0,0,1,2.07-1.93h.15a12.36,12.36,0,0,1,2.07.6l6.18,1.86q.37-3.59.72-7.2C42.75,104.54,38.12,103.28,33.75,102.09Z" style="fill:#fff"/><path d="M26.89,106.56h0a5.53,5.53,0,0,0-.6.75c-.65,1.36-.16,3.28.09,4.77,1.17,6.94,2.56,14.45,3.69,21.18.44,0,1-.24,1.53-.27Q29.25,119.78,26.89,106.56Z" style="fill:#fff"/><path d="M188.68,123.3a6,6,0,0,0-.12,1c0,.32.22.49.27.81.2,1.36.2,2.77.3,4.14.7,9.75,1.62,19.23,5.25,26a15.53,15.53,0,0,0,4,4.92,12.18,12.18,0,0,0,6.21,2.73,10.38,10.38,0,0,0,7.16-1.62,8.1,8.1,0,0,0,3.54-5.4,11.1,11.1,0,0,0-1.29-7.32,27.19,27.19,0,0,0-3.81-5.13c-2.84-3.19-5.9-6-8.64-9.21s-3.94-8.07-5.19-12.66c-.62-2.29-1.17-4.6-2-7a17.76,17.76,0,0,0-2.1-4.59,2.06,2.06,0,0,0-2.1-1.11C189.56,113.65,189.2,118.47,188.68,123.3Z" style="fill:#fff"/><path d="M9.64,113.4a12.21,12.21,0,0,0-4.32,3.93A8.78,8.78,0,0,0,4,123.9,9.22,9.22,0,0,0,7.15,129a11.27,11.27,0,0,0,5.7,2.55c4.71.75,8.37-1.22,11-3.09.3-.21,1.08-.67,1.14-.93a5,5,0,0,0-.21-1.11c-.78-4.26-1.49-8.49-2.19-12.63a32,32,0,0,1-.66-4.74h-.06C17.62,110.32,13.2,111.36,9.64,113.4Z" style="fill:#fff"/><path d="M40.36,115.26c1.28,7.51,2.64,15.2,4,22.74a58,58,0,0,1,.51-10.71c.34-3.46.7-6.88,1-10.38C44,116.38,42.24,115.78,40.36,115.26Z" style="fill:#4c4948"/><path d="M27,140.4a11.86,11.86,0,0,0,1.65,13.53,7.79,7.79,0,0,0,6.21,2.76,6.89,6.89,0,0,0,5.49-3.51,10.92,10.92,0,0,0,1.32-7.41,11.76,11.76,0,0,0-2.91-6.12,7.76,7.76,0,0,0-6.24-2.79A6.87,6.87,0,0,0,27,140.4Z" style="fill:#fff"/><path d="M46.69,151.44c1.22.41,2.46.8,3.66,1.23.07-.1-.08-.14-.12-.18a22.39,22.39,0,0,1-4.89-9s0-.22-.06-.06C45.75,146.08,46.23,148.78,46.69,151.44Z" style="fill:#4c4948"/><path d="M42.37,157a11.17,11.17,0,0,1-1.47,1.38,1.91,1.91,0,0,0-.51.45,12.59,12.59,0,0,0,1.68,3A6.59,6.59,0,0,0,44.62,164c.76.3,1.64.47,2.49.72,5.47,1.61,10.73,3.21,16.2,4.8a2.9,2.9,0,0,0,1.32.24c1.3-.38,1-3.1.75-4.35-.31-1.59-.62-3.06-.9-4.59a2.34,2.34,0,0,1-1.26.3,11.56,11.56,0,0,1-2.43-.75c-5.54-1.86-11.43-3.77-16.77-5.61A17.94,17.94,0,0,1,42.37,157Z" style="fill:#fff"/><path d="M34.84,160.69a13.57,13.57,0,0,0,1.56,4.92,8,8,0,0,0,3.21,3.3,17.5,17.5,0,0,0,2.49.81c5.54,1.69,10.89,3.37,16.41,5.07a7.68,7.68,0,0,0,1.29.39,3.08,3.08,0,0,0,1.77-.33c.45-.32.65-1,1-1.47-6.14-1.77-12.56-3.72-18.66-5.52a8.66,8.66,0,0,1-3.15-1.71,14.46,14.46,0,0,1-4-5.73A15.19,15.19,0,0,1,34.84,160.69Z" style="fill:#fff"/><path d="M68.47,160.53c.25,1.63.79,3.52,1,5.31a9.57,9.57,0,0,1-.78,5.37,15.66,15.66,0,0,0-.87,1.41,154.76,154.76,0,0,0,15.09,5.94c1-3.69,1.87-7.43,2.82-11.13a90.16,90.16,0,0,1-14.91-6.33,6.09,6.09,0,0,0-.93-.51c-.45-.13-1,0-1.41-.12C68.49,160.43,68.46,160.48,68.47,160.53Z" style="fill:#fff"/><path d="M86.75,163.69c.06-.48.28-1,.3-1.38-1.89-.15-3.83-.41-5.64-.54A52.74,52.74,0,0,0,86.75,163.69Z" style="fill:#fff"/><path d="M101.32,168.3c4.67.8,8.34-1.27,10.89-3.27,0,0,.22-.06.18-.18-6.92-.67-13.89-1.45-20.79-2A17.44,17.44,0,0,0,101.32,168.3Z" style="fill:#fff"/><path d="M120.75,165.72a20.31,20.31,0,0,0,8.76,4.14c3.88.63,7.71-.26,9.84-1.92.11-.09.38-.33.33-.36-6.32-.65-12.69-1.25-19-1.92C120.65,165.7,120.65,165.78,120.75,165.72Z" style="fill:#fff"/><path d="M110.47,170.64a15.66,15.66,0,0,1-7.56,1.68c-5.82-.27-9.69-2.83-13-5.67-.28.86-.54,2-.78,3-3.68,14.83-7.55,29.71-11.19,44.52a231.21,231.21,0,0,0,70.68,4.41q-3.23-24-6.48-48a2.58,2.58,0,0,0-.63.42,11.81,11.81,0,0,1-2.1,1.32,19.52,19.52,0,0,1-11.66,1.14c-4.84-1.1-8.47-3.87-11.67-6.54A26.26,26.26,0,0,1,110.47,170.64Z" style="fill:#004386"/><path d="M147.67,182.44c3.45,2.53,6.85,5,10.29,7.68,2.92,2.23,6,4.54,8.73,7a4.65,4.65,0,0,1,1.06,1.16,5.73,5.73,0,0,1,.06,2.4,6.64,6.64,0,0,0,.18,1.56,7.91,7.91,0,0,0,4.89,5.55,9.81,9.81,0,0,0,5.88.6,8.44,8.44,0,0,0,6.51-7.44,8.63,8.63,0,0,0-5.16-8.7,8.72,8.72,0,0,0-4.5-.6,5,5,0,0,1-2.4.24,6.34,6.34,0,0,1-1.8-1.53c-.53-.51-1-1-1.53-1.44A230.68,230.68,0,0,0,146.12,171C146.6,174.78,147.16,178.65,147.67,182.44Z" style="fill:#fff"/><path d="M88.3,220.17c.38.33.77.64,1.2,1a6.35,6.35,0,0,1,1.11,1A3.79,3.79,0,0,1,91,224.6c-.12,6.28-1.54,10.75-4.86,13.65a14.24,14.24,0,0,1-4.35,2.4c-3.34,1.31-6.54,2.32-7.86,5.61a5.62,5.62,0,0,0-.36,2.88c.28,1.76,1.85,2.84,3.33,3.42a16,16,0,0,0,2.7.69,54,54,0,0,0,12.45.9,61.26,61.26,0,0,0,6.12-.6c2.92-.43,5.44-1.39,6.36-3.75a33.3,33.3,0,0,0,1.83-8.28c.2-2,.29-4.14.51-6.24.16-1.51.39-3,.63-4.41s.35-2.35,1.62-2.67a7.32,7.32,0,0,1,1.8,0c1.35.06,2.52,0,3.78,0a11.12,11.12,0,0,1,1.86,0,2,2,0,0,1,1.59,1.32,6.91,6.91,0,0,1,.18,1.47c.29,3.6.59,7.31.9,10.77.18,2,.4,4,.75,5.91a8,8,0,0,0,.75,2.58c1.22,2,4.07,2.75,6.72,3.3a55.52,55.52,0,0,0,12.6.63,29.83,29.83,0,0,0,5.73-1c1.84-.44,3.56-.94,4.56-2.1a5,5,0,0,0,.45-5.16,7.52,7.52,0,0,0-3.33-3.33,20.13,20.13,0,0,0-2.37-1c-.8-.31-1.59-.66-2.34-1-5.33-2.54-8.31-7.18-9-14.31a8.56,8.56,0,0,1-.06-2.34c0-.25.17-.42.15-.57A247.77,247.77,0,0,1,88.3,220.17Z" style="fill:#fff"/><path d="M94.45,77c-.5,1.93-1,3.81-1.56,5.73a31.44,31.44,0,0,0-13.53-.57c-.32-2-.65-3.91-1-5.88A37.2,37.2,0,0,1,94.45,77Z"/><path d="M162.37,84.84c-.67,1.88-1.43,3.67-2.1,5.55a31.19,31.19,0,0,0-13.38-2.19c-.13-2-.23-4-.39-5.91A36,36,0,0,1,162.37,84.84Z"/><path d="M81.16,95.46a11,11,0,0,1,6.06,1.62A14.69,14.69,0,0,1,93.64,106a21.09,21.09,0,0,1,.78,6.81,19.42,19.42,0,0,1-4,11.28c-2.2,2.82-5.43,5.32-9.84,5.46a10.93,10.93,0,0,1-6.06-1.62,13.17,13.17,0,0,1-4-3.69,18.18,18.18,0,0,1-3.27-12,19.87,19.87,0,0,1,4-11.34,14.66,14.66,0,0,1,4-3.63A11.77,11.77,0,0,1,81.16,95.46Z"/><path d="M76.24,101.44a12.51,12.51,0,0,0-3.12,3.84,17.75,17.75,0,0,0-1.56,11.58c.85,3.82,2.82,6.79,5.82,8.1a7.35,7.35,0,0,0,2.88.6,8.62,8.62,0,0,0,6.57-3.42s.18-.11.12-.21a7.27,7.27,0,0,1-4.5.72A7.81,7.81,0,0,1,78.7,121a11.31,11.31,0,0,1-3.78-7,15.41,15.41,0,0,1,1.29-9.12,10.66,10.66,0,0,1,5-5.16c.14-.07.35-.14.39-.24A8.1,8.1,0,0,0,76.24,101.44Z" style="fill:#fff"/><path d="M80.38,105.51a10.09,10.09,0,0,0-1.65,4.65c-.45,3.87,1.1,7.75,4,8.49a3.57,3.57,0,0,0,2.58-.33c2-1,3.25-3.25,3.78-5.67.86-3.9-.34-7.8-2.79-9.27a3.46,3.46,0,0,0-2.19-.51A5.35,5.35,0,0,0,80.38,105.51Z" style="fill:#4c4948"/><path d="M153.46,102.78a11.58,11.58,0,0,1,10.23,5.1,18.49,18.49,0,0,1,3.42,11.82,19.22,19.22,0,0,1-3.87,11.43,15.56,15.56,0,0,1-3.93,3.72,11.55,11.55,0,0,1-5.7,2,11.67,11.67,0,0,1-10.26-5.07,17,17,0,0,1-2.55-5.1,19.57,19.57,0,0,1-.9-6.75,20.52,20.52,0,0,1,3.85-11.51,14,14,0,0,1,6.48-5A12.05,12.05,0,0,1,153.46,102.78Z"/><path d="M156,129.42a7.18,7.18,0,0,1-3.93-1.35,10.89,10.89,0,0,1-4.14-6.39,16,16,0,0,1,.6-9.09,11.85,11.85,0,0,1,4.26-5.61c.13-.08.36-.15.3-.24-3.86.78-6.06,3.27-7.62,6.42a17.7,17.7,0,0,0-1,11.82c1,3.49,3.09,6.59,6.51,7.56a7.71,7.71,0,0,0,5.73-.76,11.1,11.1,0,0,0,3.63-3.42h0A7.6,7.6,0,0,1,156,129.42Z" style="fill:#fff"/><path d="M153.19,112.2a10.11,10.11,0,0,0-1.62,4.74,10.52,10.52,0,0,0,.84,5.4,4.93,4.93,0,0,0,3.33,3.06,3.56,3.56,0,0,0,2.58-.48A8.23,8.23,0,0,0,162,119a11.21,11.21,0,0,0-.33-5.61,6,6,0,0,0-2.82-3.57,3.91,3.91,0,0,0-1.86-.3A5.49,5.49,0,0,0,153.19,112.2Z" style="fill:#4c4948"/><path d="M115.75,113.67a10.91,10.91,0,0,1,8.49,3,5.62,5.62,0,0,1,1.44,2.4,5.13,5.13,0,0,1-1.83,5.43,9.34,9.34,0,0,1-5.73,2,12.61,12.61,0,0,1-6.3-1.38,6.89,6.89,0,0,1-3.66-4,5.2,5.2,0,0,1,1.8-5.46,8.17,8.17,0,0,1,2.49-1.35A11.1,11.1,0,0,1,115.75,113.67Z"/><path d="M113.41,118.17c-.57.26-1.46.65-1.47,1.47a1.78,1.78,0,0,0,.66,1.17,7.88,7.88,0,0,0,7.26,1.41c.82-.25,2-.76,2.07-1.65.11-1.07-1.47-2-2.19-2.28a9.11,9.11,0,0,0-3.87-.66A6.48,6.48,0,0,0,113.41,118.17Z" style="fill:#9fa0a0"/><path d="M98.44,128.78a4.61,4.61,0,0,1,2,.39,68.82,68.82,0,0,0,14.16,2.43,104,104,0,0,0,16-.09,10,10,0,0,1,2.16-.15,1.92,1.92,0,0,1,1.68,1.89A5.47,5.47,0,0,1,134,135a21.12,21.12,0,0,1-6.24,9.3,16.48,16.48,0,0,1-5.7,3.18,19.62,19.62,0,0,1-7.92.66A19.27,19.27,0,0,1,102,142.52,18.7,18.7,0,0,1,97,132a4.62,4.62,0,0,1,0-2A2,2,0,0,1,98.44,128.78Z"/><path d="M103.15,137.78c2.31,3.6,6.18,5.91,11.37,6.51,7.73.9,12.24-3.32,14.67-8.16.07-.14.19-.31.15-.48-9.87.65-20.12,0-28-2.07A14.72,14.72,0,0,0,103.15,137.78Z" style="fill:#fff"/><path d="M67.81,129.7a9.6,9.6,0,1,1-6.77,3A9.63,9.63,0,0,1,67.81,129.7Z" style="fill:#e60012"/><path d="M160,139.11a9.51,9.51,0,0,1,7.08,2.58,9.41,9.41,0,0,1,3,6.6,9.6,9.6,0,0,1-9.1,10.08h0a9.52,9.52,0,0,1-7.08-2.58,9.25,9.25,0,0,1-3.06-6.57,9.61,9.61,0,0,1,2.58-7A9.19,9.19,0,0,1,160,139.11Z" style="fill:#e60012"/><path d="M98.75,205a17.13,17.13,0,0,1-4.3-8.93,19.13,19.13,0,0,1,1.81-11.51,17.8,17.8,0,0,1,11.25-9,19.76,19.76,0,0,1,5.89-.63,16.9,16.9,0,0,1,8.88,3A17.83,17.83,0,0,1,130.42,192a18.94,18.94,0,0,1-2.11,9.58A18.09,18.09,0,0,1,98.75,205Z" style="fill:#fff"/><path d="M114.65,207.11a14.34,14.34,0,0,0,10.23-7.39,14.78,14.78,0,0,0,1.62-7.5,14.24,14.24,0,0,0-28.44-.09v.18a14,14,0,0,0,3.57,10.16A14.24,14.24,0,0,0,114.65,207.11Z" style="fill:#004386"/><path d="M120.22,204.14a15.51,15.51,0,0,1-7.28-2.9l1.5-1.18-5.39-.46,1.29,1.42s-2.74,1.93-7.85,1.66l-1.11-3.22a27.37,27.37,0,0,0,6.08,0l-4.41-.38.75-8.8.69.06-2.11-1.75c1.39-2,1.46-3.4,1.64-5.48v-.55l.89.08c3.91.33,5.09.48,7.08.17l1.38,3a27.8,27.8,0,0,1-6,0,5.51,5.51,0,0,1-.07.55l5.23.45-.21,2.49a11.64,11.64,0,0,0,1.21-5l.07-.82.91.08c3.91.33,5.09.48,7.08.17l1.47,3a37,37,0,0,1-6,0v.55l5.69.48-.23,2.74-1.85-.16-.13,1.51.62,0-.75,8.8-4.07-.35a26.69,26.69,0,0,0,5.63,1Zm-12.6-15-.82-.07a10.61,10.61,0,0,1-.65,1.46l1.35.12Zm9.69,4.37-10-.86v.57l10,.85Zm-.18,2.1-10-.86v.57l10,.86Zm-.18,2.1-10-.85v.57l10,.85Zm-4.85-8,.16-.22-1.21-.1-.13,1.51,2.63.22Zm5.12.21-.75-.06a10.48,10.48,0,0,1-.59,1.47l1.21.1Z" style="fill:#fff"/><circle cx="187.88" cy="259.86" r="6.76" style="fill:none;stroke:#231815;stroke-width:0.7086610198020935px"/><path d="M203.36,253.88l.8.37-.19.25a13.76,13.76,0,0,0,2.41,2.38,10.49,10.49,0,0,0,2.75,1.5,1.61,1.61,0,0,0-.52.74,12.58,12.58,0,0,1-2.68-1.63,15.37,15.37,0,0,1-2.4-2.44,17.92,17.92,0,0,1-2,2.06,17.3,17.3,0,0,1-1.4,1.12h6.72v.71H204v1.78h3v.76h-3v2.24h4.5v.76h-9.8v-.76h4.46v-2.24H200v-.76h3.1v-1.78H200v-.62a12.89,12.89,0,0,1-1.42.85,2.45,2.45,0,0,0-.47-.74,10.59,10.59,0,0,0,2.66-1.73A13.48,13.48,0,0,0,203.36,253.88Z" style="fill:#231815"/><path d="M215.3,254.2l.43.66a20,20,0,0,1-3.24.59v.49h3.42v.65h-1.45v1.69h-.79v-1.69h-1.24a4.4,4.4,0,0,1-.14.64,3.35,3.35,0,0,1-.83,1.33,2.33,2.33,0,0,0-.76-.55,2.87,2.87,0,0,0,.8-1,3.09,3.09,0,0,0,.23-1.14v-1.22l.54.17A14.16,14.16,0,0,0,215.3,254.2Zm4.42,8.87h-1.56a10.81,10.81,0,0,0,1.85.77,7.41,7.41,0,0,0,1.44.3,2.65,2.65,0,0,0-.42.71,9.87,9.87,0,0,1-1.6-.41,10.63,10.63,0,0,1-1.87-.85l.36-.52h-3.46l.52.55a11.25,11.25,0,0,1-3.52,1.27,1.91,1.91,0,0,0-.42-.79,9.71,9.71,0,0,0,3.29-1h-1.74v-4.51h7.16Zm-6.34-3.8v.51h5.53v-.56Zm5.53,1.22h-5.53v.65h5.53Zm0,1.26h-5.53v.61h5.53Zm1.55-7.55.42.66a26.66,26.66,0,0,1-3.65.54v.54h4.16v.65h-1.73v1.69h-.8v-1.69h-1.69a2.53,2.53,0,0,1-.13.54,2.66,2.66,0,0,1-.76,1.1,2.12,2.12,0,0,0-.74-.56,2.34,2.34,0,0,0,.72-.79,2.07,2.07,0,0,0,.21-.89v-1.42l.54.17a19.42,19.42,0,0,0,3.45-.54Z" style="fill:#231815"/><path d="M223.45,258.6h2.3v3.91a3.6,3.6,0,0,0,1.51.89,6.51,6.51,0,0,0,2,.31h5a3.64,3.64,0,0,0-.24.8h-4.78a8,8,0,0,1-2.09-.32,4.42,4.42,0,0,1-1.57-.9,12,12,0,0,1-1.83,1.49l-.48-.7q1-.64,1.69-1.16v-3.58h-1.51Zm1-4.21a9.55,9.55,0,0,1,1.88,1.26l-.48.61A9.23,9.23,0,0,0,224,255Zm2.16.79h3.1v-1h.79v1h3.25v.66h-3.24v.94h2.63v3.61h-2.63v.84h3.56v.66h-3.56v1.45h-.79v-1.45h-3.37v-.66h3.37v-.84h-2.58v-3.61h2.58v-.94h-3.1Zm1.26,2.21v.84h1.84v-.84Zm1.84,2.39v-1h-1.86v1Zm.79-2.39v.84h1.88v-.84Zm1.88,1.4H230.5v1h1.88Z" style="fill:#231815"/><path d="M191.24,261.66a3.38,3.38,0,0,1-1.24,1.83,3.11,3.11,0,0,1-1.92.54,3.77,3.77,0,0,1-2.75-1.16,4,4,0,0,1-1.11-3,4.26,4.26,0,0,1,1-2.92,3.58,3.58,0,0,1,2.82-1.2,3.06,3.06,0,0,1,3.15,2.11h-1a2.17,2.17,0,0,0-2.17-1.4,2.7,2.7,0,0,0-2.22,1,3.71,3.71,0,0,0-.75,2.38,3.5,3.5,0,0,0,.94,2.58,2.79,2.79,0,0,0,2.07.84,2.14,2.14,0,0,0,2.19-1.65Z" style="fill:#231815"/></svg>